<svg width="21" height="23" fill="none" xmlns="http://www.w3.org/2000/svg"><path fill-rule="evenodd" clip-rule="evenodd" d="M16.4 3h2.9c1 0 1.7.8 1.7 1.9v16.3c0 1-.8 1.8-1.7 1.8H1.7c-1 0-1.7-.8-1.7-1.8V4.9C0 3.9.8 3 1.8 3h2.8V1.6c0-.3.3-.6.7-.6.3 0 .6.3.6.6V3h4V1.6c0-.3.2-.6.6-.6.4 0 .7.3.7.6V3H15V1.6c0-.3.3-.6.7-.6.3 0 .6.3.6.6V3zm3.2 18.5V4.9c0-.3-.1-.5-.3-.5h-2.9v1.4c0 .4-.3.7-.6.7a.7.7 0 01-.7-.7V4.4h-4v1.4c0 .4-.2.7-.6.7a.7.7 0 01-.7-.7V4.4H6v1.4c0 .4-.3.7-.6.7a.7.7 0 01-.7-.7V4.4H1.8c-.3 0-.5.2-.5.5v16.3c0 .2.2.4.4.4h17.6l.3-.1z" fill="#A9A9A9"/><path fill-rule="evenodd" clip-rule="evenodd" d="M4.6 9.2h2.6v2H4.6v-2zm0 3.5h2.6v2H4.6v-2zM7.2 16H4.6v2h2.6v-2zm2 0h2.6v2H9.2v-2zm2.6-3.4H9.2v2h2.6v-2zM9.2 9.2h2.6v2H9.2v-2zm7.2 7h-2.6v2h2.6v-2zm-2.6-3.5h2.6v2h-2.6v-2zm2.6-3.5h-2.6v2h2.6v-2z" fill="#A9A9A9"/></svg>