<svg width="75" height="72" fill="none" xmlns="http://www.w3.org/2000/svg"><path fill-rule="evenodd" clip-rule="evenodd" d="M45.7 65h-16V41.2h16V65zm-3-20.9H32.6v18h10.1v-18z" fill="#81B3D2"/><path fill-rule="evenodd" clip-rule="evenodd" d="M72.8 39.3l2-2.1-9.9-9.9V0H51.1v13.6L37.5 0 .2 37.2l2 2 7.9-7.7V69H6V72H70v-3h-5V31.6l7.8 7.8zM62 69H13V28.5L37.5 4.1 62 28.5v40.6zm-8-52.6l8 7.9V2.9h-8v13.6z" fill="#81B3D2"/><path fill-rule="evenodd" clip-rule="evenodd" d="M37.7 34.8a7.7 7.7 0 117.7-7.7c0 4.2-3.5 7.7-7.7 7.7zm5-7.7a5 5 0 00-5-5 5 5 0 105 5zM17 41.2h3v4h-3v-4zm8.9 0h-3v4h3v-4zm-9 6h3V51h-3v-4zm9 0h-3V51h3v-4zm23-6h3v4h-3v-4zm9 0h-3v4h3v-4zm-9 6h3V51h-3v-4zm9 0h-3V51h3v-4z" fill="#81B3D2"/></svg>