<svg width="64" height="77" fill="none" xmlns="http://www.w3.org/2000/svg"><path fill-rule="evenodd" clip-rule="evenodd" d="M61.1 23.5H36.3c13.8-6.9 15-11.3 14.4-13.7-1.1-4-5.7-7-10-5.4-5.6 2.1-7.1 10.4-8.6 16.4-2-6-3.8-13.8-8.2-17.7a7.3 7.3 0 00-5.7-2c-4 .3-9.8 5.3-7.5 11 2.3 5.3 9.7 8.7 14.6 11.4H2.9A2.9 2.9 0 000 26.4v11.3c0 1.6 1.3 2.9 2.9 2.9h.3V77H61V40.6h.1c1.6 0 2.9-1.3 2.9-3V26.5c0-1.6-1.3-2.9-2.9-2.9zM42.4 6.9c2.1-.3 5 1.3 5.3 3.3.4 2.7-3.4 5.2-5.1 6.4-2.5 1.7-5 2.6-7.3 4 .9-3.7 2.5-13 7.1-13.7zM19.5 17c-2.2-1.5-6.5-4.4-6.4-7.8.1-3.6 5.7-6.5 8.8-3.8 3.9 3.3 5.7 11 7.1 16.5-3.2-1.5-6.3-2.8-9.5-4.9zm6 57.1H6.1V40.6h19.4V74zm0-36.5H3v-11h22.5v11zm10.2 0V74h-7.2V26.5h7.2v11zM58 74H38.6V40.6H58V74zm3-36.5H38.5v-11H61v11z" fill="#81B3D2"/></svg>