<svg width="75" height="70" fill="none" xmlns="http://www.w3.org/2000/svg"><path fill-rule="evenodd" clip-rule="evenodd" d="M9 31.5h60.9v-1.8-1.2C69.2 12.7 55.2 0 37.9 0 20.8 0 6.8 12.7 6 28.5a26.9 26.9 0 000 3h3zm13 11l-5.4-4-5.3 4-6.2-4.7 1.7-2.5 4.5 3.4 5.3-4 5.4 4 5.3-4 5.3 4 5.3-4 5.4 4 5.3-4 5.3 4 5.4-4 5.3 4 4.5-3.4 1.7 2.5-6.2 4.7-5.3-4-5.4 4-5.3-4-5.3 4-5.4-4-5.3 4-5.3-4-5.3 4zM5 46.7H71c2.2 0 4 2 4 4.3v3.5c0 2.4-1.8 4.3-4 4.3h-1v1c0 5.6-4.3 10.2-9.6 10.2H15.6A9.9 9.9 0 016 59.9v-1H5c-2.2 0-4-2-4-4.4V51c0-2.4 1.8-4.3 4-4.3zM60.4 67c3.7 0 6.7-3.1 6.7-7v-1H8.9v1c0 3.9 3 7 6.7 7h44.7zM72 54.5c0 .7-.6 1.3-1.2 1.3H5c-.7 0-1.3-.6-1.3-1.3V51c0-.7.6-1.2 1.3-1.2h65.8c.6 0 1.2.5 1.2 1.2v3.5zm-5.1-26C66.3 14.4 53.5 3 38 3 22.4 3 9.6 14.4 9 28.5h58z" fill="#81B3D2"/><path d="M38 17.3c1 0 1.9-1 1.9-2a2 2 0 00-2-2c-1 0-1.9.8-1.9 2 0 1 .9 2 2 2zM30.2 12.3c1 0 2-1 2-2a2 2 0 00-2-2.1c-1.1 0-2 1-2 2 0 1.2.9 2 2 2zM45.7 12.3c1.1 0 2-1 2-2a2 2 0 00-2-2.1c-1 0-2 1-2 2 0 1.2 1 2 2 2z" fill="#81B3D2"/></svg>