<svg width="115" height="41" fill="none" xmlns="http://www.w3.org/2000/svg"><path fill-rule="evenodd" clip-rule="evenodd" d="M15.5 1h-.1L0 2.8v28.8l15.4 9.3 15.3-9.3V2.7L15.5 1.1zM77 2.7h-2v13.1h2v-13zM41 2.6v5.2a4 4 0 012.8-1.3c1 0 2 .3 2.6 1 .7.7 1 1.7 1 2.7v5.6h-2v-5.3c.1-.6 0-1-.3-1.5-.4-.4-.8-.6-1.3-.7h-.3c-1 0-2 .6-2.5 1.5v6h-2V2.6h2zM77 31.5h-1.7V30a4 4 0 01-3.4 1.6 4.7 4.7 0 01-4.3-4.7c0-2.5 1.9-4.6 4.3-4.8a4 4 0 013.2 1.5v-5.4h2v13.2zM47 30l.6-.1v1.4l-1.2.2c-.8 0-1.5-.4-1.8-1a5 5 0 01-3.3 1.1c-1.6 0-3-.9-3-2.8 0-2.3 2-3 3.9-3l2.3.3V26c0-1-.8-2-2.4-2-1 0-2.1.3-3.1.8v-1.9c1-.3 2.2-.5 3.3-.6 2.5 0 4 1.2 4 4v3.2l.2.4c.1.2.2.2.4.2h.2zm-6.7-1.3c0 .4.2.8.5 1 .3.3.6.4 1 .4h.1c1 0 1.9-.4 2.6-1v-1.6a10 10 0 00-2-.2c-1 0-2.2.3-2.2 1.4zM56 23c-.8-.4-1.7-.7-2.7-.7H53c-1.2 0-2.3.6-3.1 1.5-.9 1-1.3 2.1-1.3 3.4v.4a4.5 4.5 0 004.7 4.2c1 0 2-.2 3-.6v-1.8c-.8.4-1.7.7-2.6.7-1 0-2.1-.5-2.7-1.5a3 3 0 010-3c.6-1 1.6-1.5 2.7-1.5.9 0 1.7.3 2.4.8v-1.9zm10.2 7.2l.5-.1v1.4l-1.2.2c-.8 0-1.5-.4-1.8-1a5 5 0 01-3.3 1.1c-1.6 0-3-.9-3-2.8 0-2.3 2-3 3.9-3 .7 0 1.5.1 2.2.3V26c0-1-.8-2-2.3-2-1 0-2.1.3-3.1.8v-1.9c1-.3 2.2-.5 3.3-.6 2.5 0 4 1.2 4 4v3.2c0 .2 0 .3.2.4 0 .2.2.2.4.2h.2zm-6.3-.3c-.3-.2-.5-.6-.5-1 0-1 1.1-1.4 2.3-1.4.6 0 1.2 0 1.9.2V29c-.7.7-1.6 1-2.6 1-.5.1-.9 0-1.1-.3zm9.4-2.9a3 3 0 013-3v.1A3 3 0 0175 26V28a3 3 0 01-2.9 2 3 3 0 01-2.9-3zm14-4.7c3.5 0 4.8 3 4.2 5.5h-6.6c.2 1.7 1.8 2.3 3.4 2.3 1 0 1.9-.2 2.8-.6V31c-1 .4-2.1.7-3.2.6-2.7 0-5-1.5-5-4.7 0-1.2.3-2.4 1.1-3.3.8-1 2-1.4 3.1-1.5h.2zm-2.4 4a2.4 2.4 0 012.5-2.3 2 2 0 011.8.6c.4.5.6 1.1.6 1.7h-5zm8.6 5.3v-9h1.7v1a4 4 0 013-1.3 3 3 0 012.7 1.5c.8-.9 2-1.4 3.1-1.4 1 0 1.9.3 2.5 1 .7.7 1 1.6.9 2.6v5.6h-2v-5.6c0-.4 0-.9-.4-1.2-.3-.4-.7-.6-1.1-.7h-.3a3 3 0 00-2.2 1.2v6.3h-2v-5.6c0-.4 0-.9-.4-1.2-.2-.4-.7-.6-1.1-.7h-.2c-1 .1-1.8.6-2.3 1.4v6.1h-1.9zm24.5-9h-2l-2.7 6.8-3-6.8h-2.1l4.2 9-.2.5c-.5 1.4-1.2 2-2.1 2a3 3 0 01-1 0v1.6l1.2.2c1.3 0 2.6-.8 3.6-3.1l4-10.2zM52.7 6.8V3.5l-2 .5v2.7h-1.6v1.8h1.7V13c0 .8.2 1.6.8 2.2.6.6 1.4.9 2.2.7a7 7 0 002.3-.3v-1.8c-.5.3-1.1.4-1.7.4-1.2 0-1.7-.4-1.7-1.6v-4h3.2V6.7h-3.2zm5.7 9v-9H60v1a4 4 0 013-1.3 3 3 0 012.7 1.4c.8-.9 1.9-1.4 3-1.4 1 0 2 .3 2.6 1 .6.7 1 1.7.8 2.6v5.6h-2v-5.5c0-.5 0-1-.4-1.3-.2-.3-.7-.6-1.1-.6h-.2a3 3 0 00-2.2 1.2v6.2h-2v-5.5c0-.5-.1-1-.4-1.3-.3-.3-.7-.6-1.1-.6h-.3c-1 0-1.8.6-2.3 1.4v6h-1.8zM28.7 30.3zm0-12v12l-13.3 8.1-13.4-8V18.4l13.3 8.1V28l-9.1-5.5V24l9.1 5.7V31l-9.1-5.6V27l9.2 5.6 9.2-5.7v-6l4.1-2.6zm0-1.5L25 18.9 23.3 20l-8-5v1.5l6.9 4.2-.2.1-1 .6-5.7-3.4v1.4l4.5 2.7-1 .7-3.5-2v1.4l2.2 1.3-2.2 1.4-13.2-8 13.2-8.2 13.4 8zM15.3 7.3l13.4 8V4.7L15.4 3 2 4.6v10.8l13.3-8.1z" fill="#231F20"/></svg>