<svg width="458" height="352" viewBox="0 0 458 352" fill="none" xmlns="http://www.w3.org/2000/svg">
<path fill-rule="evenodd" clip-rule="evenodd" d="M181.774 56.09L178.929 60.967H176.2L175.33 62.401H178.087L172.018 72.784C170.741 74.992 171.642 77.03 174.08 77.03C175.303 77.03 176.618 76.393 177.933 75.409L177.155 76.743H180.201L184.789 68.856C189.433 63.089 191.495 63.836 190.188 66.046L186.268 72.786C184.99 74.996 185.891 77.034 188.329 77.034C190.125 77.034 192.117 75.664 194.022 73.829C194.168 75.686 195.689 77.034 198.112 77.034C201.535 77.034 204.932 74.394 207.428 71.526C207.231 71.123 206.709 70.665 206.302 70.493L206.099 70.719C203.921 73.216 201.135 75.194 199.017 75.194C197.157 75.194 196.053 74.048 197.447 71.639L197.737 71.119C199.683 71.924 203.341 71.55 205.605 67.679L206.042 66.932C207.667 64.179 206.1 62.114 203.632 62.114C201.193 62.114 199.249 63.377 197.972 65.555L195.042 70.52L194.866 70.72C192.689 73.214 190.571 75.192 189.235 75.192C188.569 75.192 188.189 74.732 188.885 73.557L193.24 66.014C194.546 63.749 193.3 62.114 191.616 62.114C190.309 62.114 188.914 62.831 187.406 64.379L192.224 56.09H189.205L180.782 70.528L180.612 70.718C178.436 73.214 176.315 75.192 174.979 75.192C174.312 75.192 173.935 74.732 174.633 73.557L181.105 62.399H183.572L184.444 60.966H181.948L184.793 56.091L181.774 56.09ZM149.465 60.969L152.31 56.094H155.329L152.483 60.967H154.982L154.11 62.403H151.645L145.169 73.561C144.472 74.736 144.85 75.196 145.517 75.196C146.852 75.196 148.974 73.217 151.15 70.721L151.306 70.545L152.543 68.455L154.023 65.902C155.765 62.918 157.563 62.002 159.885 62.002C162.731 62.002 164.414 64.955 162.586 68.082L159.741 72.928C161.252 72.899 162.935 72.184 164.299 70.721L164.504 70.493C164.91 70.665 165.432 71.122 165.632 71.526C164.092 73.332 161.248 74.422 159.448 74.422H158.782C155.513 78.506 150.166 77.763 150.172 73.961C148.306 75.73 146.369 77.034 144.615 77.034C142.177 77.034 141.276 74.996 142.554 72.787L148.622 62.404H145.865L146.735 60.969H149.465ZM160.263 66.967C161.291 65.225 160.825 64.02 159.841 63.93C159.076 63.86 157.998 64.466 157.071 66.022L155.62 68.459L153.326 72.387C151.526 75.484 154.983 75.943 156.405 73.533L156.435 73.477C156.26 73.189 156.144 72.844 156.144 72.473C156.144 71.498 156.927 70.694 157.914 70.694H158.059L160.263 66.967ZM203.575 66.936C204.587 65.192 204.055 64.275 203.086 64.332V64.333C202.334 64.377 201.317 65.011 200.554 66.303L198.608 69.66C199.741 70.062 201.688 70.12 203.138 67.682L203.575 66.936ZM247.404 58.869C245.69 60.389 245.546 62.083 246.621 63.459L246.883 63.803L246.821 63.8899C245.492 65.7458 243.718 68.2255 241.773 70.487L241.775 70.49L241.572 70.719C240.207 72.18 238.526 72.899 237.014 72.928L239.857 68.08C241.687 64.954 240.004 62 237.157 62C234.837 62 233.037 62.918 231.297 65.9L229.813 68.453L228.575 70.545L228.421 70.721C225.924 73.561 223.778 75.392 221.396 76.397L228.159 64.983H226.389C226.389 63.749 225.113 62.113 223.225 62.113C221.601 62.113 219.335 63.378 218.057 65.557L213.819 72.784C212.541 74.992 213.441 77.03 215.879 77.03C216.722 77.03 217.739 76.656 218.756 76.026L217.913 77.43C213.849 78.663 211.293 80.298 211.293 82.536C211.293 85.405 215.735 86.007 217.913 82.336L220.205 78.406C222.621 77.663 224.988 76.259 227.445 73.942C227.424 77.759 232.782 78.509 236.055 74.418H236.723C238.523 74.418 241.368 73.329 242.907 71.522C244.356 69.858 245.487 68.367 247.897 65.127L248.302 65.616C248.679 66.103 248.827 66.706 248.477 67.307L245.284 72.786C244.004 74.996 244.905 77.032 247.345 77.032C248.875 77.032 250.549 76.037 252.187 74.61C252.137 75.996 253.074 77.032 254.806 77.032C255.646 77.032 256.663 76.659 257.68 76.028L256.838 77.43C252.773 78.663 250.222 80.298 250.222 82.536C250.222 85.405 254.662 86.006 256.838 82.336L259.13 78.406C261.59 77.648 264 76.2 266.507 73.807C266.643 75.675 268.165 77.032 270.597 77.032C273.055 77.032 275.496 75.669 277.601 73.842C277.484 77.747 282.911 78.545 286.213 74.42H286.881C287.826 74.42 289.056 74.112 290.238 73.567C289.425 75.64 290.172 77.032 291.899 77.032C293.555 77.032 295.412 75.54 296.863 74.164C296.573 75.769 297.53 77.032 299.447 77.032C301.943 77.032 304.817 74.395 307.315 71.526L307.313 71.524C308.668 69.9796 309.896 68.3481 310.883 67.0383L310.883 67.0381C311.143 66.6925 311.387 66.3693 311.611 66.076C311.211 67.1162 311.017 68.435 310.827 69.7278C310.452 72.2827 310.091 74.736 308.185 74.736C307.169 74.736 306.765 73.646 306.765 73.646L304.875 74.621C304.875 74.621 305.426 77.033 308.185 77.033C308.453 77.033 308.697 77.0074 308.959 76.9799L309.025 76.973C309.04 76.973 309.055 76.9662 309.071 76.9595C309.086 76.9527 309.101 76.946 309.116 76.946C312.192 76.546 315.24 74.136 317.504 71.526C317.331 71.067 316.808 70.608 316.374 70.492L316.171 70.721C315.106 71.9533 313.886 73.0423 312.541 73.961C312.916 72.8472 313.113 71.4997 313.326 70.043C313.657 67.7852 314.025 65.2653 315.155 62.947L312.891 61.742C312.66 62.0549 312.379 62.4432 312.056 62.8882C310.633 64.8511 308.41 67.9181 306.185 70.49V70.492L305.982 70.721C303.806 73.217 301.687 75.193 300.351 75.193C299.684 75.193 299.306 74.734 300.004 73.559L306.448 62.401H303.428L298.058 71.666C295.765 73.73 293.996 74.878 293.414 74.619C292.714 74.3277 293.313 73.3433 293.705 72.6988C293.736 72.6486 293.765 72.6005 293.792 72.555L299.685 62.403H296.665L291.931 70.495L291.732 70.721C290.368 72.184 288.685 72.901 287.174 72.931L290.019 68.082C291.847 64.955 290.169 62.002 287.32 62.002C284.997 62.002 283.197 62.92 281.456 65.905L279.974 68.455L278.737 70.545L278.582 70.723C276.406 73.219 273.618 75.196 271.499 75.196C269.641 75.196 268.539 74.05 269.932 71.641L270.222 71.123C272.166 71.927 275.826 71.553 278.089 67.68L278.527 66.934C280.15 64.18 278.585 62.115 276.117 62.115C273.677 62.115 271.73 63.38 270.454 65.559L267.528 70.524L267.353 70.721C264.854 73.561 262.708 75.394 260.325 76.399L267.089 64.983H265.317C265.317 63.749 264.04 62.115 262.153 62.115C260.528 62.115 258.264 63.378 256.986 65.557L254.09 70.494L254.082 70.49L253.879 70.72C251.703 73.215 249.581 75.194 248.245 75.194C247.578 75.194 247.203 74.734 247.899 73.559L250.917 68.339C251.962 66.532 251.468 65.469 250.48 64.293L248.797 62.283C248.362 61.738 248.362 61.137 248.972 60.563L247.404 58.869ZM237.534 66.967C238.561 65.225 238.094 64.019 237.11 63.929V63.93C236.346 63.86 235.27 64.466 234.342 66.022L232.889 68.459L230.597 72.387C228.797 75.484 232.253 75.943 233.675 73.533L233.703 73.477C233.529 73.189 233.413 72.844 233.413 72.473C233.413 71.498 234.197 70.694 235.183 70.694H235.33L237.534 66.967ZM287.268 63.929C288.252 64.019 288.721 65.225 287.694 66.967L285.488 70.694H285.341C284.355 70.694 283.573 71.498 283.573 72.473C283.573 72.844 283.689 73.189 283.862 73.477L283.832 73.533C282.411 75.943 278.957 75.484 280.757 72.387L283.049 68.459L284.5 66.022C285.427 64.466 286.503 63.86 287.268 63.93V63.929ZM276.053 66.936C277.065 65.193 276.536 64.277 275.568 64.334V64.335C274.816 64.379 273.798 65.013 273.036 66.305L271.088 69.66C272.221 70.062 274.167 70.12 275.618 67.682L276.053 66.936ZM223.165 64.535C224.188 64.529 224.843 65.419 224.01 66.935L221.718 70.895C219.888 73.792 218.058 75.195 216.78 75.195C216.113 75.195 215.735 74.736 216.431 73.561L220.643 66.305C221.353 65.088 222.37 64.54 223.165 64.535ZM262.933 66.935C263.766 65.419 263.111 64.529 262.088 64.535C261.293 64.54 260.276 65.088 259.566 66.305L255.356 73.561C254.662 74.736 255.038 75.195 255.705 75.195C256.981 75.195 258.813 73.792 260.641 70.895L262.933 66.935ZM216.75 79.443L216.749 79.4443C214.459 80.3322 213.732 81.2201 213.732 81.994C213.732 82.797 214.748 82.968 215.386 81.85L216.749 79.4443L216.75 79.444V79.443ZM255.674 79.4443L255.675 79.443V79.444L255.674 79.4443ZM255.674 79.4443L254.313 81.85C253.673 82.968 252.657 82.797 252.657 81.994C252.657 81.2201 253.383 80.3322 255.674 79.4443ZM101.025 67.831H129.947V69.781H101.025V67.831ZM356.977 67.831H328.055V69.781H356.977V67.831Z" fill="#766458"/>
<path fill-rule="evenodd" clip-rule="evenodd" d="M194.824 37.364V45.1H174.008V0.352997H194.824V8.023H181.624V18.827H192.159V26.497H181.624V37.363L194.824 37.364ZM216.17 45.1V37.364L205.573 37.363V0.352997H197.957V45.1H216.17ZM322.7 45.1V37.364H309.499V26.497H320.034V18.827H309.499V8.024H322.7V0.352997H301.884V45.1H322.7ZM297.459 0.353997H289.908L283.115 21.959L276.324 0.353997H268.772V45.101H276.389V23.111L279.371 34.489H286.796L289.843 23.111V45.101H297.459V0.353997ZM257.999 8.024H252.476V37.364H258L257.999 8.024ZM265.679 5.085C265.679 2.463 263.521 0.353997 260.981 0.353997L249.557 0.354997C246.957 0.354997 244.861 2.464 244.861 5.085V40.37C244.861 42.927 246.957 45.1 249.557 45.1H260.981C263.521 45.1 265.679 42.927 265.679 40.37V5.085ZM232.971 28.606L240.649 26.816V40.368C240.649 42.925 238.492 45.098 235.953 45.098H224.528C221.928 45.098 219.833 42.925 219.833 40.368V5.084C219.833 2.462 221.928 0.353997 224.528 0.353997H235.951C238.491 0.353997 240.648 2.462 240.648 5.084V14.161L232.97 15.951V8.023H227.448V37.363H232.97L232.971 28.606ZM170.241 0.353997H162.564L161.994 37.364H161.232L156.344 0.353997H148.792L144.032 37.364H143.208L142.573 0.353997H134.957L136.099 45.1H150.632L152.599 26.626L154.567 45.1H169.037L170.241 0.353997Z" fill="#81B3D3"/>
<path fill-rule="evenodd" clip-rule="evenodd" d="M9.67303 190.115C9.75003 190.193 9.78903 190.27 9.78903 190.348C9.86703 190.348 9.94403 190.386 10.021 190.464C12.111 192.786 14.473 194.954 17.105 196.967C19.737 198.902 22.757 199.947 26.163 200.102C26.241 200.102 26.318 200.142 26.395 200.219H26.744C26.821 200.219 26.899 200.257 26.976 200.335H28.253C28.641 200.257 28.989 200.18 29.299 200.102C30.54 199.869 31.7235 199.396 32.783 198.709C33.943 198.012 34.834 197.16 35.453 196.154L35.686 195.689L35.918 195.225C36.073 194.683 36.189 194.18 36.267 193.715C36.344 193.251 36.383 192.825 36.383 192.438C36.383 190.348 35.453 188.606 33.596 187.212C31.8645 185.769 29.9011 184.631 27.789 183.844C26.9947 183.551 26.1794 183.318 25.35 183.148C24.622 182.928 23.8862 182.734 23.144 182.567H22.912C22.834 182.49 22.757 182.451 22.68 182.451C18.9145 181.533 15.3115 180.045 11.996 178.038C8.66603 175.948 6.38303 172.967 5.14403 169.096C4.9014 168.286 4.66905 167.473 4.44703 166.657C4.28809 165.773 4.17195 164.882 4.09903 163.987C4.0277 163.721 3.98875 163.448 3.98303 163.173V160.386C4.06003 159.767 4.17603 159.148 4.33103 158.528C4.57144 156.947 4.96015 155.391 5.49203 153.883C6.03403 152.335 6.73103 150.941 7.58203 149.703C10.06 145.599 13.234 142.657 17.105 140.877C21.054 139.096 25.157 138.206 29.415 138.206C30.422 138.206 31.428 138.283 32.435 138.438C33.5225 138.516 34.6068 138.632 35.686 138.786C38.51 139.261 41.2744 140.04 43.931 141.109C46.718 142.193 49.273 143.47 51.596 144.941L45.209 159.225C43.1246 157.681 40.9096 156.321 38.589 155.161C36.267 153.999 33.751 153.419 31.041 153.419H30.111C28.331 153.651 26.667 154.464 25.118 155.857C23.57 157.173 22.796 158.606 22.796 160.154V160.851C22.873 161.083 22.989 161.315 23.144 161.548C23.299 162.09 23.57 162.593 23.957 163.058C24.344 163.522 24.77 163.948 25.234 164.335C26.086 165.032 27.324 165.69 28.951 166.309C30.576 166.851 32.28 167.393 34.061 167.935C35.531 168.322 36.963 168.709 38.357 169.096C39.751 169.406 40.912 169.716 41.841 170.026C46.176 171.574 49.428 174.167 51.596 177.806C53.763 181.367 54.886 185.161 54.963 189.186V189.767C54.963 190.232 54.925 190.697 54.847 191.161V192.438C54.383 196.464 53.067 200.296 50.899 203.935C48.809 207.574 45.983 210.361 42.422 212.297C41.1002 212.918 39.7429 213.461 38.357 213.922C36.973 214.307 35.5792 214.656 34.177 214.968C33.0271 215.199 31.8633 215.354 30.693 215.432C29.5767 215.584 28.4516 215.661 27.325 215.664H26.047C21.402 215.51 16.835 214.503 12.344 212.644C7.85403 210.709 3.86703 208.154 0.384033 204.98L9.67303 190.115ZM225.567 143.869C219.219 147.353 214.264 152.386 210.703 158.966L210.702 158.965C209.679 160.861 208.824 162.842 208.147 164.887C207.462 166.859 206.919 168.877 206.522 170.926C206.289 172.011 206.134 173.055 206.057 174.061C205.98 175.068 205.941 176.075 205.941 177.081C205.941 183.894 207.799 190.475 211.515 196.823C215.231 203.094 220.341 207.933 226.844 211.339C229.212 212.565 231.704 213.538 234.276 214.242C236.864 214.931 239.506 215.397 242.173 215.636H243.683C244.222 215.713 244.765 215.752 245.309 215.752C252.895 215.752 260.135 213.7 267.025 209.597C273.915 205.417 278.986 199.572 282.237 192.062C282.845 190.55 283.349 188.998 283.747 187.417C284.205 185.823 284.516 184.191 284.676 182.54C284.831 181.765 284.909 180.991 284.909 180.217C284.986 179.365 285.025 178.552 285.025 177.778C285.025 171.354 283.515 165.198 280.496 159.314C277.477 153.353 273.219 148.592 267.722 145.03C265.173 143.407 262.445 142.082 259.593 141.082C256.849 140.086 254.007 139.386 251.115 138.992C250.186 138.914 249.219 138.837 248.212 138.759C247.283 138.682 246.354 138.643 245.425 138.643C238.535 138.643 231.915 140.385 225.567 143.869ZM298.712 213.95V139.976H318.222L346.093 177.95C346.813 179.075 347.472 180.238 348.067 181.434C348.771 182.608 349.429 183.809 350.041 185.034L351.435 188.054C351.899 189.06 352.364 190.027 352.828 190.956C352.755 190.138 352.639 189.324 352.48 188.518C352.403 187.744 352.325 186.931 352.248 186.079C352.09 184.495 351.974 182.908 351.899 181.318C351.819 179.655 351.78 177.989 351.783 176.324V139.976H371.176V213.95H351.783L323.68 175.744C322.906 174.815 322.17 173.731 321.474 172.493C320.77 171.161 320.111 169.805 319.5 168.428C319.05 167.453 318.586 166.485 318.106 165.525C317.747 164.585 317.359 163.655 316.945 162.738C317.332 165.138 317.642 167.577 317.874 170.054C318.106 172.531 318.216 175.009 318.222 177.486V213.95H298.712ZM406.172 139.976L380.74 213.95H400.714L404.546 200.595H433.114L436.83 213.95H457.036L431.372 139.976H406.172ZM408.844 186.311L416.392 161.808C416.699 160.733 416.971 159.649 417.205 158.556C417.521 157.445 417.792 156.322 418.017 155.189C418.094 155.034 418.134 154.918 418.134 154.84C418.134 154.686 418.172 154.531 418.25 154.376C418.327 153.911 418.405 153.485 418.482 153.098C418.637 152.634 418.753 152.208 418.83 151.821C418.908 152.208 418.985 152.634 419.063 153.098C419.14 153.486 419.256 153.911 419.411 154.376C419.653 155.659 419.924 156.937 420.224 158.208C420.6 159.412 420.987 160.612 421.385 161.808L428.934 186.311H408.844ZM263.542 185.559C263.774 184.785 263.968 183.972 264.122 183.12C264.355 182.269 264.51 181.417 264.587 180.565C264.665 180.024 264.703 179.482 264.703 178.94C264.781 178.398 264.819 177.894 264.819 177.43C264.819 176.963 264.78 176.497 264.703 176.036V174.643C264.316 171.313 263.31 168.101 261.683 165.004C260.058 161.907 257.813 159.507 254.948 157.804C254.174 157.417 253.4 157.069 252.626 156.759C251.852 156.449 251.077 156.179 250.303 155.946C249.535 155.792 248.76 155.676 247.981 155.598C247.216 155.444 246.438 155.366 245.658 155.365C241.71 155.365 238.071 156.605 234.742 159.082C231.413 161.559 229.09 164.849 227.774 168.952L227.542 169.417V169.881C227.303 170.604 227.109 171.341 226.962 172.088C226.807 172.785 226.652 173.52 226.497 174.294L226.265 175.92V178.359C226.265 178.591 226.303 178.862 226.381 179.172C226.613 183.275 227.851 187.185 230.097 190.901C232.419 194.539 235.594 196.939 239.619 198.101L241.013 198.565C241.477 198.643 241.981 198.72 242.523 198.797L243.916 199.03H245.31C249.413 199.03 253.09 197.83 256.342 195.43C259.671 192.952 262.071 189.662 263.542 185.559ZM169.541 212.092C173.799 211.162 177.747 209.459 181.386 206.982H181.387C185.877 203.73 189.322 199.55 191.722 194.44C194.122 189.33 195.438 184.027 195.671 178.53V175.627C195.671 175.162 195.632 174.698 195.554 174.234C195.245 168.968 193.89 163.859 191.49 158.904C189.09 153.95 185.722 149.963 181.387 146.944C178.023 144.485 174.189 142.746 170.123 141.834C166.097 140.905 161.993 140.324 157.813 140.092C156.652 140.014 155.452 139.976 154.213 139.976H129.129V213.95H152.935C154.175 213.95 155.414 213.911 156.651 213.834C160.986 213.602 165.283 213.022 169.541 212.092ZM148.986 197.343C149.218 197.343 149.451 197.382 149.683 197.459H150.496C150.806 197.459 151.076 197.499 151.309 197.576H154.444C155.296 197.498 156.109 197.421 156.883 197.343C158.887 197.19 160.87 196.84 162.805 196.298C164.741 195.756 166.483 194.943 168.031 193.859C170.509 192.079 172.328 189.679 173.489 186.659C174.721 183.595 175.352 180.323 175.347 177.021V176.091C175.347 175.782 175.309 175.472 175.231 175.163C175.079 172.23 174.369 169.353 173.141 166.685C171.902 163.898 170.199 161.692 168.031 160.065C166.441 158.767 164.574 157.853 162.573 157.395C160.592 156.924 158.569 156.652 156.534 156.582H148.986V197.343ZM69.076 139.975V213.949H114.482V197.343H88.934V184.801H112.973V169.007H88.934V156.117H114.482V139.975H69.076ZM351.423 336.358C351.31 336.649 351.253 336.941 351.253 337.235C351.253 337.953 351.5 338.504 351.993 338.884C352.488 339.268 353.063 339.458 353.713 339.458C353.689 339.839 353.589 340.176 353.409 340.468C353.23 340.759 353.001 341.016 352.733 341.228C352.466 341.441 352.179 341.621 351.876 341.767C351.572 341.912 351.298 342.029 351.048 342.119L352.398 344.109C352.431 344.093 352.464 344.077 352.496 344.062L352.526 344.048L352.582 344.022C352.644 343.993 352.706 343.966 352.768 343.939C352.974 343.851 353.214 343.731 353.494 343.587C353.802 343.424 354.1 343.244 354.387 343.047C354.689 342.844 354.972 342.613 355.23 342.356C355.783 341.807 356.223 341.154 356.526 340.436C356.83 339.717 356.981 338.928 356.981 338.078C356.981 337.627 356.915 337.201 356.779 336.797C356.644 336.393 356.454 336.045 356.207 335.753C355.916 335.436 355.56 335.196 355.146 335.026C354.73 334.858 354.298 334.774 353.848 334.774C353.443 334.774 353.078 334.848 352.753 334.994C352.443 335.129 352.162 335.323 351.926 335.566C351.703 335.802 351.535 336.065 351.423 336.358ZM359.09 337.235C359.09 336.942 359.147 336.649 359.257 336.358C359.37 336.065 359.539 335.802 359.763 335.566C359.99 335.331 360.263 335.138 360.588 334.994C360.915 334.849 361.278 334.774 361.684 334.774C362.134 334.774 362.567 334.858 362.981 335.026C363.398 335.196 363.751 335.436 364.042 335.753C364.292 336.045 364.482 336.393 364.616 336.797C364.75 337.202 364.818 337.628 364.818 338.078C364.827 338.887 364.672 339.689 364.363 340.436C364.059 341.154 363.618 341.806 363.065 342.356C362.806 342.613 362.523 342.844 362.22 343.047C361.934 343.246 361.636 343.426 361.327 343.587C361.047 343.732 360.807 343.851 360.602 343.939C360.478 343.993 360.354 344.05 360.232 344.109L358.884 342.119C359.131 342.03 359.404 341.912 359.709 341.767C360.013 341.621 360.299 341.441 360.569 341.228C360.837 341.014 361.063 340.761 361.242 340.468C361.423 340.176 361.524 339.84 361.546 339.458C360.924 339.469 360.318 339.266 359.827 338.884C359.337 338.504 359.09 337.953 359.09 337.236V337.235ZM94.36 279.394C94.473 279.103 94.53 278.81 94.53 278.519H94.531C94.531 277.8 94.283 277.251 93.791 276.87C93.297 276.488 92.723 276.298 92.073 276.298C92.096 275.915 92.196 275.577 92.376 275.285C92.556 274.993 92.779 274.74 93.049 274.527C93.319 274.313 93.606 274.134 93.909 273.988C94.1784 273.858 94.4537 273.74 94.734 273.636L93.386 271.648C93.342 271.67 93.219 271.728 93.016 271.815C92.813 271.904 92.571 272.023 92.291 272.167C91.9829 272.329 91.6847 272.509 91.398 272.707C91.0946 272.909 90.8119 273.14 90.554 273.397C90.001 273.947 89.5604 274.599 89.257 275.317C88.954 276.037 88.802 276.825 88.802 277.677C88.7999 278.112 88.8681 278.544 89.004 278.957C89.1262 279.339 89.3207 279.694 89.577 280.002C89.8723 280.319 90.2343 280.567 90.637 280.727C91.0489 280.895 91.4894 280.98 91.934 280.979C92.6564 280.989 93.3513 280.703 93.857 280.187C94.0757 279.959 94.2467 279.689 94.36 279.394ZM86.694 278.519C86.6892 279.141 86.4487 279.738 86.021 280.189C85.7854 280.431 85.5048 280.625 85.195 280.76C84.869 280.906 84.503 280.98 84.099 280.98C83.6541 280.981 83.2131 280.896 82.801 280.728C82.3984 280.567 82.0364 280.319 81.741 280.002C81.484 279.694 81.2894 279.339 81.168 278.957C81.0316 278.544 80.9634 278.112 80.966 277.677C80.966 276.825 81.116 276.037 81.421 275.317C81.7241 274.599 82.1647 273.946 82.718 273.397C82.965 273.149 83.245 272.92 83.561 272.706C83.875 272.494 84.173 272.313 84.454 272.166C84.734 272.022 84.974 271.904 85.178 271.816L85.2347 271.79C85.4036 271.714 85.5094 271.667 85.55 271.646L86.897 273.634C86.649 273.724 86.375 273.842 86.071 273.987C85.768 274.134 85.481 274.313 85.214 274.525C84.9465 274.737 84.7178 274.994 84.538 275.284C84.359 275.576 84.258 275.914 84.236 276.296C84.886 276.296 85.46 276.486 85.954 276.869C86.447 277.251 86.694 277.799 86.694 278.519ZM335.859 335.393H332.044L343.925 314.757H347.701L335.859 335.393ZM331.863 336.881C330.627 336.881 329.682 337.861 329.682 339.099C329.682 340.337 330.628 341.279 331.863 341.279C333.095 341.279 334.08 340.335 334.08 339.099C334.08 337.863 333.095 336.881 331.863 336.881ZM306.601 329.466L305.511 331.354C306.346 333.825 309.65 332.445 310.78 330.483L312.595 327.359C313.94 325.069 310.961 323.398 306.601 329.466ZM330.603 334.334C330.385 333.754 329.731 333.171 329.186 333.027L328.931 333.319C327.602 334.879 326.075 336.258 324.389 337.423C324.859 336.012 325.106 334.304 325.372 332.458C325.784 329.599 326.244 326.409 327.657 323.473L324.822 321.946C324.544 322.328 324.207 322.799 323.821 323.338L323.82 323.339L323.82 323.339C322.043 325.822 319.236 329.743 316.43 333.027C316.436 333.037 316.446 333.045 316.451 333.052C316.445 333.049 316.438 333.045 316.431 333.041C316.423 333.035 316.414 333.03 316.406 333.027L316.153 333.319C313.426 336.479 310.776 338.985 309.103 338.985C308.269 338.985 307.469 338.149 307.469 336.442V334.88C310.121 335.207 312.919 333.462 314.699 330.376L315.715 328.633C319.237 322.603 313.498 320.603 309.647 324.129L315.022 314.792H311.243L300.468 333.487C300.261 333.303 300.029 333.15 299.779 333.03L299.523 333.322C296.8 336.482 293.312 338.988 290.66 338.988C288.335 338.988 286.955 337.535 288.699 334.484L292.583 327.727C294.763 323.985 298.615 324.603 296.361 328.527L295.817 329.471H298.907L299.452 328.527C301.486 325.039 299.523 322.423 296.437 322.423C293.386 322.423 290.95 324.023 289.352 326.783L285.634 333.163C285.614 333.151 285.594 333.139 285.575 333.127C285.515 333.091 285.456 333.055 285.401 333.031L285.146 333.323C282.422 336.483 279.771 338.989 278.099 338.989C277.263 338.989 276.793 338.409 277.663 336.919L285.729 322.786H281.949L275.23 334.52C272.357 337.135 270.145 338.588 269.416 338.262C268.54 337.892 269.289 336.646 269.78 335.83C269.818 335.766 269.855 335.705 269.889 335.647L277.263 322.786H273.485L266.147 335.481C265.641 335.942 264.838 336.372 264.114 336.761C263.67 336.999 263.256 337.221 262.957 337.425C263.428 336.013 263.674 334.305 263.941 332.458V332.458L263.941 332.457C264.353 329.599 264.814 326.41 266.226 323.475L263.394 321.948C261.831 324.091 253.111 335.646 249.696 339.641C250.021 340.113 250.568 340.586 251.112 340.949C253.255 338.479 260.45 329.215 261.794 327.435C261.293 328.753 261.051 330.425 260.814 332.063C260.345 335.3 259.895 338.407 257.506 338.407C256.236 338.407 255.726 337.025 255.726 337.025L253.365 338.261C253.365 338.261 254.055 341.311 257.505 341.311C257.839 341.311 258.141 341.281 258.469 341.248L258.469 341.248L258.561 341.239C258.568 341.239 258.574 341.238 258.581 341.236C258.587 341.234 258.593 341.231 258.599 341.228C258.604 341.226 258.609 341.224 258.614 341.221L258.614 341.221C258.625 341.215 258.635 341.21 258.646 341.207L258.651 341.205L258.654 341.204C258.659 341.204 258.663 341.203 258.667 341.203C260.587 340.949 263.245 340.065 265.027 338.833C265.015 340.37 265.943 341.311 267.527 341.311C269.595 341.311 271.922 339.422 273.737 337.679C273.376 339.714 274.572 341.311 276.972 341.311C279.318 341.311 281.931 339.425 284.409 336.948C284.443 339.458 286.377 341.311 289.535 341.311C292.601 341.311 295.649 339.598 298.276 337.295L296.171 340.949H299.987L304.31 333.429V336.443C304.31 339.675 304.927 341.311 307.98 341.311C311.103 341.311 314.701 337.97 317.825 334.336C317.823 334.333 317.821 334.33 317.818 334.326C317.812 334.319 317.806 334.311 317.805 334.302C317.819 334.314 317.836 334.325 317.852 334.336C319.565 332.362 321.117 330.271 322.355 328.602C322.666 328.183 322.958 327.79 323.227 327.432C322.727 328.75 322.486 330.42 322.249 332.058C321.78 335.296 321.33 338.405 318.94 338.405C317.67 338.405 317.16 337.023 317.16 337.023L314.798 338.259C314.798 338.259 315.489 341.309 318.94 341.309C319.268 341.309 319.566 341.28 319.892 341.247L319.996 341.237C320.012 341.237 320.027 341.23 320.043 341.222C320.062 341.212 320.081 341.202 320.101 341.202C323.954 340.69 327.769 337.64 330.602 334.332L330.603 334.334ZM215.829 333.248H216.012L218.772 328.526C221.06 324.601 217.428 322.821 214.775 327.326L212.959 330.414L210.089 335.391C207.836 339.315 212.16 339.895 213.939 336.845L213.976 336.772C213.758 336.41 213.613 335.975 213.613 335.503C213.613 334.265 214.594 333.248 215.829 333.248ZM190.582 347.379C189.782 348.796 188.51 348.579 188.51 347.563C188.51 346.583 189.419 345.457 192.325 344.329L190.582 347.379ZM155.737 338.952C157.299 338.952 159.552 337.244 161.84 333.649L164.781 328.489C166.635 325.073 162.603 324.166 160.568 327.688L155.301 336.881C154.43 338.372 154.902 338.952 155.737 338.952ZM149.786 318.899C150.912 316.972 152.148 316.137 153.201 316.137C154.619 316.137 155.272 317.081 155.272 318.462C155.272 321.986 150.908 329.295 145.1 328.343H144.337L149.786 318.899ZM242.309 333.285L242.563 332.993L242.564 332.994C243.074 333.212 243.727 333.794 243.982 334.305C240.856 337.938 237.262 341.28 234.136 341.28C231.083 341.28 229.958 338.703 231.556 335.904L236.46 327.366C238.096 324.568 235.516 323.625 229.739 330.855L223.963 340.918H220.148L222.688 336.524C221.002 337.454 219.134 337.974 217.754 337.974H216.919C212.681 343.332 205.653 342.129 206.173 336.852C202.921 340.071 199.807 342.03 196.648 343.024L193.742 348.002C191.02 352.652 185.46 351.888 185.46 348.255C185.46 345.423 188.657 343.314 193.78 341.79L195.851 338.23C194.142 339.754 192.073 341.28 190.256 341.28C188.374 341.28 187.415 339.948 187.868 337.87C185.694 339.86 183.461 341.28 181.428 341.28C178.377 341.28 177.251 338.704 178.849 335.904L183.753 327.37C185.388 324.571 182.808 323.628 177.031 330.858L171.255 340.921H167.441L168.833 338.51C166.891 340.159 164.923 341.283 163.113 341.283C161.189 341.283 160.025 340.268 159.845 338.814C158.028 340.303 156.139 341.283 154.613 341.283C151.938 341.283 150.742 339.302 151.565 336.928L151.341 337.141L151.341 337.141C148.851 339.51 146.988 341.283 142.884 341.283C137.544 341.283 135.983 336.199 138.634 331.621L139.759 329.657C136.709 328.059 135.001 325.152 135.001 322.139C135.001 319.593 136.198 317.017 138.888 315.089L140.123 317.307C138.489 318.577 137.689 320.321 137.689 322.064C137.689 324.172 138.853 326.279 141.069 327.442L146.955 317.305C148.661 314.327 151.132 312.873 153.203 312.873C155.999 312.873 158.216 315.088 158.216 318.503C158.216 319.993 157.743 321.736 156.69 323.589C153.711 328.784 149.133 330.856 145.1 330.856C144.339 330.856 143.648 330.779 142.958 330.672L141.903 332.524C139.653 336.376 141.214 338.955 143.793 338.955C147.468 338.955 149.552 336.538 152.206 333.459L152.353 333.288L152.607 332.996C152.878 333.069 153.175 333.251 153.435 333.484L157.338 326.748C158.934 323.985 161.77 322.388 163.803 322.388C166.274 322.388 167.909 324.604 167.764 326.202H169.907L163.803 336.882C162.932 338.374 163.404 338.954 164.239 338.954C165.912 338.954 168.564 336.447 171.287 333.287L171.541 332.995C171.666 333.053 171.786 333.12 171.9 333.197L177.938 322.752H181.718L180.301 325.221C182.189 323.259 183.897 322.387 185.532 322.387C187.639 322.387 189.201 324.459 187.566 327.329L182.117 336.882C181.246 338.374 181.718 338.954 182.553 338.954C184.225 338.954 186.876 336.447 189.601 333.287L189.855 332.995C189.97 333.049 190.081 333.111 190.186 333.182L196.214 322.752H199.992L192.617 335.612L192.57 335.692L192.506 335.798C192.016 336.616 191.271 337.859 192.145 338.228C192.871 338.554 195.124 337.065 198.031 334.378L204.714 322.752H208.493L198.138 340.482C201.116 339.207 203.768 336.882 206.893 333.287L207.147 332.996C207.266 333.05 207.38 333.114 207.489 333.186L209.109 330.416L210.961 327.183C213.142 323.405 215.393 322.243 218.3 322.243C221.862 322.243 223.968 325.982 221.68 329.944L218.12 336.084C220.009 336.047 222.117 335.137 223.823 333.285L224.078 332.993C224.248 333.073 224.41 333.17 224.56 333.283L230.648 322.75H234.427L233.01 325.219C234.9 323.257 236.605 322.386 238.241 322.386C240.346 322.386 241.912 324.457 240.276 327.327L234.826 336.88C233.955 338.372 234.426 338.952 235.262 338.952C236.934 338.952 239.587 336.445 242.309 333.285ZM361.194 297.421C358.904 301.162 356.579 302.942 354.982 302.942C354.147 302.942 353.675 302.362 354.545 300.872L359.812 291.679C361.847 288.155 365.879 289.064 364.026 292.479H364.061L361.194 297.421ZM318.903 302.942C320.464 302.942 322.717 301.234 325.007 297.64L327.948 292.479C329.8 289.064 325.768 288.155 323.734 291.679L318.466 300.872C317.596 302.362 318.067 302.942 318.903 302.942ZM285.09 311.37C284.293 312.787 283.02 312.57 283.02 311.554C283.02 310.573 283.892 309.447 286.799 308.32L285.09 311.37ZM296.535 280.129C295.48 280.129 294.245 280.963 293.118 282.889L287.67 292.334H288.433C298.06 294.564 302.529 280.129 296.535 280.129ZM370.782 296.986L370.527 297.276C367.807 300.436 365.153 302.943 363.48 302.943C362.645 302.943 362.173 302.363 363.043 300.872L375.832 278.748H372.053L366.496 288.339C365.842 287.285 364.606 286.377 363.043 286.377C361.008 286.377 358.176 287.976 356.577 290.736L352.879 297.116C352.866 297.109 352.853 297.101 352.84 297.093L352.815 297.078C352.757 297.043 352.699 297.008 352.645 296.984L352.39 297.276C349.667 300.436 347.39 302.942 345.718 302.942C344.881 302.942 344.411 302.362 345.28 300.872L350.73 291.317C352.367 288.447 350.802 286.375 348.696 286.375C347.06 286.375 345.356 287.246 343.464 289.21L344.881 286.74H341.102L335.065 297.187C334.95 297.11 334.83 297.042 334.705 296.984L334.449 297.276C331.726 300.436 329.075 302.942 327.403 302.942C326.568 302.942 326.097 302.362 326.967 300.872L333.07 290.19H330.926C331.072 288.592 329.438 286.375 326.966 286.375C324.931 286.375 322.096 287.974 320.498 290.733L316.846 297.039L316.64 297.273C313.918 300.432 310.89 302.938 309.22 302.938C308.383 302.938 307.913 302.358 308.783 300.868L312.561 294.257C313.868 291.967 313.25 290.624 312.016 289.134L309.91 286.59C309.365 285.9 309.365 285.137 310.128 284.41L308.166 282.267C306.022 284.194 305.841 286.336 307.184 288.08L307.513 288.516L307.379 288.705L307.379 288.706C305.721 291.048 303.523 294.153 301.116 296.981C301.157 297.04 301.202 297.098 301.25 297.156C301.29 297.204 301.331 297.253 301.374 297.301C298.261 300.881 295.615 303.196 292.644 304.463L297.439 296.253H293.661L293.262 296.908C291.264 300.432 288.974 302.939 286.032 302.939C283.452 302.939 282.982 300.36 285.232 296.509L286.287 294.657C286.995 294.774 287.711 294.834 288.429 294.838C301.872 294.838 308.375 276.856 296.533 276.856C294.461 276.856 291.989 278.31 290.283 281.288L284.398 291.423C282.182 290.262 281.02 288.155 281.02 286.048C281.02 284.305 281.82 282.56 283.452 281.29L282.219 279.073C279.529 280.999 278.331 283.577 278.331 286.12C278.331 289.136 280.04 292.042 283.091 293.64L281.964 295.603C279.312 300.181 279.784 305.266 285.126 305.266C286.724 305.266 288.067 304.794 289.231 304.066L288.248 305.776C283.128 307.336 279.966 309.407 279.966 312.241C279.966 315.873 285.526 316.637 288.248 311.987L291.155 307.01C295.08 305.775 298.931 303.087 303.073 298.291C303.006 298.165 302.927 298.046 302.837 297.936C304.515 295.965 305.939 294.062 308.787 290.19L309.294 290.809C309.767 291.425 309.948 292.189 309.512 292.953L305.515 299.89C303.916 302.685 305.043 305.264 308.095 305.264C309.994 305.264 312.443 304.025 314.48 302.24C314.436 303.978 315.624 305.264 317.779 305.264C319.304 305.264 321.194 304.284 323.009 302.794C323.192 304.248 324.356 305.264 326.279 305.264C328.089 305.264 330.056 304.139 331.999 302.49L330.607 304.902H334.42L340.197 294.837C345.974 287.608 348.554 288.553 346.917 291.35L342.014 299.888C340.417 302.686 341.541 305.264 344.592 305.264C346.602 305.264 348.428 303.88 350.574 301.931C350.374 303.824 351.578 305.264 353.856 305.264C355.381 305.264 357.27 304.284 359.088 302.794C359.27 304.249 360.433 305.264 362.357 305.264C365.482 305.264 369.077 301.923 372.202 298.288C371.946 297.784 371.293 297.203 370.782 296.986ZM262.281 292.48C264.535 288.556 260.682 287.939 258.502 291.681L256.068 295.931C257.484 296.439 259.919 296.513 261.736 293.424L262.281 292.48ZM255.451 305.268C259.738 305.268 263.991 301.927 267.113 298.293C266.86 297.783 266.205 297.203 265.696 296.985L265.443 297.277C262.717 300.437 259.23 302.943 256.576 302.943C254.251 302.943 252.871 301.49 254.614 298.438L254.977 297.785C257.412 298.801 261.989 298.33 264.823 293.425L265.368 292.481C267.403 288.992 265.441 286.377 262.352 286.377C259.302 286.377 256.868 287.975 255.269 290.736L251.59 297.049C251.552 297.029 251.514 297.001 251.478 296.985L251.223 297.277C248.499 300.437 245.848 302.943 244.176 302.943C243.34 302.943 242.87 302.363 243.739 300.872L249.189 291.317C250.824 288.447 249.261 286.375 247.153 286.375C245.518 286.375 243.774 287.284 241.887 289.246L247.917 278.746H244.139L233.483 297.236C233.348 297.138 233.203 297.053 233.051 296.984L232.796 297.275C230.071 300.436 227.42 302.942 225.748 302.942C224.913 302.942 224.441 302.362 225.311 300.872L233.413 286.738H236.503L237.593 284.921H234.468L238.028 278.746H234.25L230.69 284.921H227.275L226.185 286.738H229.635L222.042 299.891C220.444 302.69 221.57 305.268 224.621 305.268C226.499 305.268 228.547 304.055 230.561 302.304L229.062 304.904H232.877L238.617 294.912C244.43 287.61 247.01 288.555 245.375 291.352L240.47 299.89C238.872 302.688 239.998 305.266 243.05 305.266C245.346 305.266 247.896 303.461 250.326 301.061C250.436 303.492 252.359 305.268 255.451 305.268ZM131.756 292.479C134.01 288.555 130.16 287.938 127.98 291.68L125.545 295.929C126.961 296.438 129.397 296.511 131.212 293.423L131.756 292.479ZM151.099 300.871L156.367 291.68C158.401 288.154 162.434 289.063 160.58 292.479L157.638 297.638C155.35 301.233 153.095 302.942 151.534 302.942C150.7 302.942 150.227 302.361 151.099 300.872V300.871ZM208.859 292.479C211.113 288.555 207.263 287.938 205.083 291.68L202.648 295.929C204.064 296.437 206.499 296.511 208.314 293.423L208.859 292.479ZM147.275 301.206C146.648 303.446 147.845 305.266 150.409 305.266C151.934 305.266 153.824 304.286 155.639 302.797C155.822 304.25 156.985 305.267 158.909 305.267C160.922 305.267 163.127 303.877 165.278 301.921C164.86 303.963 165.817 305.267 167.678 305.267C169.751 305.267 172.076 303.377 173.891 301.633C173.527 303.669 174.728 305.267 177.125 305.267C180.25 305.267 183.845 301.925 186.97 298.291C186.955 298.262 186.935 298.232 186.914 298.203C186.899 298.182 186.883 298.161 186.87 298.14C188.51 296.232 189.998 294.233 191.2 292.618L191.2 292.618L191.2 292.617L191.201 292.617L191.201 292.616C191.529 292.175 191.836 291.764 192.118 291.39C191.617 292.708 191.375 294.379 191.138 296.018V296.018C190.669 299.254 190.219 302.362 187.83 302.362C186.56 302.362 186.05 300.98 186.05 300.98L183.687 302.215C183.687 302.215 184.377 305.267 187.829 305.267C188.153 305.267 188.447 305.238 188.766 305.206L188.883 305.194C188.902 305.194 188.92 305.185 188.938 305.176C188.956 305.168 188.973 305.159 188.991 305.159C191.767 304.792 194.52 303.103 196.904 300.95C196.962 303.436 198.89 305.267 202.029 305.267C206.316 305.267 210.567 301.926 213.691 298.291C213.437 297.781 212.783 297.201 212.275 296.983L212.021 297.275C209.296 300.435 205.808 302.942 203.158 302.942C200.832 302.942 199.451 301.488 201.195 298.437L201.559 297.783C203.991 298.799 208.569 298.328 211.404 293.423L211.949 292.48C213.983 288.991 212.021 286.376 208.934 286.376C205.884 286.376 203.447 287.974 201.851 290.734L198.181 297.028C198.165 297.023 198.149 297.014 198.133 297.006C198.114 296.997 198.096 296.987 198.077 296.982L197.823 297.273C196.494 298.833 194.967 300.213 193.281 301.379C193.752 299.967 193.998 298.259 194.265 296.412V296.412L194.265 296.412C194.678 293.554 195.139 290.364 196.551 287.428L193.718 285.902C193.434 286.292 193.089 286.774 192.693 287.326L192.693 287.326C190.914 289.811 188.12 293.713 185.325 296.982C185.336 296.997 185.348 297.012 185.36 297.028C185.368 297.037 185.376 297.047 185.384 297.056L185.386 297.059L185.387 297.06C185.403 297.08 185.42 297.1 185.435 297.12L185.3 297.273C182.576 300.433 179.924 302.94 178.252 302.94C177.417 302.94 176.945 302.36 177.816 300.87L185.881 286.735H182.102L175.382 298.469C172.512 301.085 170.297 302.538 169.568 302.211C168.692 301.841 169.443 300.593 169.934 299.776L169.935 299.774L169.944 299.759C169.965 299.726 169.984 299.693 170.003 299.661C170.016 299.639 170.029 299.617 170.042 299.596L177.415 286.736H173.637L167.624 297.141L167.59 297.12C167.504 297.067 167.418 297.014 167.337 296.98L167.083 297.27C164.358 300.43 161.707 302.937 160.035 302.937C159.2 302.937 158.728 302.357 159.599 300.867L165.702 290.185H163.558C163.704 288.587 162.07 286.369 159.598 286.369C157.564 286.369 154.73 287.969 153.132 290.729L149.302 297.341C149.126 297.197 148.932 297.075 148.726 296.978L148.472 297.268C145.748 300.428 142.614 302.935 139.962 302.935C137.638 302.935 136.256 301.482 137.999 298.431L141.886 291.675C144.066 287.933 147.917 288.55 145.663 292.473L145.118 293.418H148.208L148.752 292.473C150.786 288.986 148.825 286.369 145.738 286.369C142.686 286.369 140.604 287.969 139.008 290.729L135.252 297.172C135.142 297.098 135.026 297.033 134.905 296.978L134.651 297.268C131.927 300.428 128.704 302.935 126.053 302.935C123.727 302.935 122.346 301.482 124.09 298.431L124.453 297.777C126.887 298.795 131.465 298.322 134.299 293.419L134.844 292.473C136.878 288.987 134.916 286.37 131.828 286.37C128.778 286.37 126.342 287.968 124.745 290.73L120.785 297.522C118.422 301.555 120.458 305.26 124.925 305.26C128.254 305.26 130.938 303.245 133.713 300.643C133.615 303.28 135.571 305.26 138.834 305.26C141.922 305.266 144.634 303.532 147.275 301.206ZM113.454 282.015L110.403 287.246V287.247C114.254 287.174 116.399 286.338 117.849 283.614C119.739 280.053 116.214 277.258 113.454 282.015ZM106.335 304.466C104.082 304.466 102.302 303.958 100.885 303.16C101.539 302.396 102.192 301.451 102.775 300.471L109.131 289.463L110.148 289.571C119.014 291.426 115.489 304.466 106.335 304.466ZM115.672 288.991C123.3 286.41 123.881 276.856 116.361 276.856C114.29 276.856 111.82 278.309 110.113 281.288L99.94 298.872C99.5203 299.627 99.0343 300.344 98.488 301.013C95.872 297.418 96.635 292.042 100.304 289.679L98.777 287.753C90.857 292.803 93.183 307.37 106.407 307.37C117.707 307.372 122.937 293.824 115.672 288.991Z" fill="white"/>
</svg>
